<?xml version="1.0" encoding="UTF-8"?>
<svg xmlns="http://www.w3.org/2000/svg" width="227" height="59" id="Camada_1" data-name="Camada 1" viewBox="0 0 1896.5 404.47">
  <defs>
    <style>.cls-1{fill:#ba1916;}.cls-2{fill:#262727;}.cls-3{fill:#fff;}</style>
  </defs>
  <title>Logo Colorida Horizontal</title>
  <path class="cls-1" d="M1891.53,8.28Q1853.16,202.56,1815,396.86c-1.14,5.8-3.49,6.95-8.92,6.58q-148.85-10.23-297.7-20.09-145.75-9.77-291.55-19.47T925.28,344.21c-7.06-.48-14.13-1.31-21.19-1.29-5.19,0-7.06-1.94-7.74-7-5.19-38.4-10.69-76.74-16-115.1Q868.79,136.44,857.31,52c-1.18-8.56-1.26-8.42,6.89-8.77Q965,39.07,1065.74,34.83q77.31-3.22,154.62-6.33,76.76-3.16,153.52-6.38v0l336-13.82,175.29-7.22C1892.83.73,1893,1,1891.53,8.28Z"></path>
  <path class="cls-2" d="M135.65,294.81v6a4.78,4.78,0,0,1-5.12,5.12H9.38a4.78,4.78,0,0,1-5.12-5.12V103.69a4.78,4.78,0,0,1,5.12-5.12h7.11a4.78,4.78,0,0,1,5.12,5.12v186H130.53A4.78,4.78,0,0,1,135.65,294.81Z"></path>
  <path class="cls-2" d="M186.84,305.9h-7.11a4.78,4.78,0,0,1-5.12-5.12V103.69a4.78,4.78,0,0,1,5.12-5.12h7.11a4.78,4.78,0,0,1,5.12,5.12V300.78A4.78,4.78,0,0,1,186.84,305.9Z"></path>
  <path class="cls-2" d="M396.15,103.69a4.78,4.78,0,0,1,5.12-5.12h7.11a4.78,4.78,0,0,1,5.12,5.12V300.5a4.78,4.78,0,0,1-5.12,5.12l-4,.28a6,6,0,0,1-5.69-2.85L262.2,131.56V300.78a4.78,4.78,0,0,1-5.12,5.12H250a4.78,4.78,0,0,1-5.12-5.12V104c0-3.13,2-5.12,5.12-5.41h4a6.49,6.49,0,0,1,6,2.85L396.15,274.05Z"></path>
  <path class="cls-2" d="M595.51,114.78h-112v77.36H570.2a4.78,4.78,0,0,1,5.12,5.12V203a4.78,4.78,0,0,1-5.12,5.12H483.46v81.62H600.35a4.78,4.78,0,0,1,5.12,5.12v6a4.78,4.78,0,0,1-5.12,5.12H471.23a4.78,4.78,0,0,1-5.12-5.12V103.69a4.78,4.78,0,0,1,5.12-5.12H595.51c2.85,0,4.84,2,4.84,5.12v6C600.35,112.79,598.36,114.78,595.51,114.78Z"></path>
  <path class="cls-2" d="M655.23,302.2a5.22,5.22,0,0,1-5.4,3.7c-1.43,0-5.12-.28-8.25-.28-2.56,0-4.27-1.43-4.27-3.42,0-2.56,4.84-12.51,90.44-199.93a6.22,6.22,0,0,1,5.69-3.7h2.27a6.22,6.22,0,0,1,5.69,3.7l89.87,197.37a8.21,8.21,0,0,1,.57,2.56c0,2-1.71,3.42-4.55,3.42l-8,.28a5.93,5.93,0,0,1-5.69-3.7l-25.31-56.59H680.83ZM687.65,230H781.5L734.58,126.73Z"></path>
  <path class="cls-3" d="M1101.86,111.44c0-7.16,4.63-11.37,11.8-11.37h21.9c7.17,0,11.38,4.21,11.38,11.37V297.66c0,7.17-4.21,11.38-11.38,11.38h-13.9c-6.32,0-10.53-1.69-14.32-6.32l-103.65-128.5V297.66c0,7.17-4.21,11.38-11.37,11.38H970.41c-7.58,0-11.8-4.21-11.8-11.38V111.44c0-7.16,4.22-11.37,11.8-11.37h13.9c5.9,0,10.11,1.68,13.9,6.74l103.65,129.34Z"></path>
  <path class="cls-3" d="M1321.37,139.25h-94.8v47.19h63.62c7.16,0,11.8,4.21,11.8,11.79v10.54c0,7.16-4.64,11.37-11.8,11.37h-63.62v50.14h94.8c7.58,0,11.79,4.21,11.79,11.37v16c0,7.17-4.21,11.38-11.79,11.38H1193.29c-7.59,0-11.8-4.21-11.8-11.38V111.44c0-7.16,4.21-11.79,11.8-11.79h128.08c7.58,0,11.79,4.63,11.79,11.79v16C1333.16,134.61,1329,139.25,1321.37,139.25Z"></path>
  <path class="cls-3" d="M1354.66,109.34c0-5.06,3.37-8.43,9.69-8.85,8.84-.42,16.85-1.69,25.27-1.69,5.48,0,9.27,3,11,9.27l37.07,139,35-62.36c3-5.48,7.59-7.58,13.91-7.58h8.84c6.32,0,10.54,2.52,13.49,8L1544.67,248l37.49-139.46c1.69-6.32,5.48-9.69,11-9.69,8.42,0,16.43,1.27,25.28,1.69,6.32.42,9.69,3.79,9.69,8.85a15.86,15.86,0,0,1-.42,4.21l-53.09,185.38Q1572.06,309,1561.94,309h-10.11c-5.9,0-10.11-2.11-13.9-7.16l-47.19-69.1-45.5,69.1c-3.37,5.47-8,7.16-14.33,7.16h-10.53q-10.11,0-12.64-10.11l-52.66-185.38A15.86,15.86,0,0,1,1354.66,109.34Z"></path>
  <path class="cls-3" d="M1657.17,250.48a14.21,14.21,0,0,1,6.32,1.68c19.8,11,44.66,17.7,67.41,17.7,26.12,0,38.76-8.43,38.76-24,0-18.12-23.17-23.17-51.82-29.07-32.44-6.32-75.84-17.7-75.84-58.56,0-43,35-62.78,84.26-62.78,27.39,0,56,8,76.68,19,3.8,2.11,5.9,5.06,5.9,8.85,0,2.11-.84,4.21-2.1,6.74l-7.59,14.75c-2.1,4.21-5.05,6.32-8.42,6.32a15.61,15.61,0,0,1-7.17-2.11c-15.59-8.43-39.6-15.17-57.72-15.17-23.59,0-36.23,5.48-36.23,22.33,0,12.64,12.22,19.38,42.55,24.86,37.5,7.58,84.69,18.11,84.69,63.62,0,39.6-32.44,64.46-83.84,64.46-33.71,0-63.2-7.16-87.22-19.8a10.72,10.72,0,0,1-5.9-9.69,16.62,16.62,0,0,1,1.27-5.9l7.16-16.43C1650.43,252.58,1653.38,250.48,1657.17,250.48Z"></path>
</svg>
