<?xml version="1.0" encoding="UTF-8"?> <svg xmlns="http://www.w3.org/2000/svg" id="Camada_1" data-name="Camada 1" viewBox="0 0 720 306.27"><defs><style>.cls-1,.cls-2{fill:#001D7E;}.cls-1{fill-rule:evenodd;}</style></defs><title>Logo Branca</title><path class="cls-1" d="M88,174.26c11.62.05,23.25,0,34.87,0,19.61,0,8.69,12.74,1.17,21.24-9.94,11.24-16.84,15-31.48,14.9H87.83l-3.59,0c-23-.15-42.74-8.11-59.18-24.2S.39,150.47.32,127.46C.2,88.67,0,49.86,0,11.06,0-8.54,12.73,2.37,21.24,9.9c11.24,9.94,15,16.83,14.9,31.46l1,85.1c.3,25.14,21.71,47.66,47.11,47.78l3.69,0Z"></path><path class="cls-1" d="M491.77,173.82v-.09h1.94c13.09,0,26.17,0,39.25,0,19.85,0,8.8,12.89,1.18,21.5-10.12,11.45-17,15.08-31.87,15.08h-6.14v.07h-6.69q-34.9-.07-59.92-24.49t-25-59.44c0-23.35,8.42-43.24,25-59.64s36.61-24.52,59.92-24.71l3.6,0h8.55c14.88,0,21.75,3.63,31.87,15.08,7.61,8.61,18.67,21.5-1.18,21.5q-19.56,0-39.12,0h-3.7c-17.16,0-32.31,9.7-40.63,24.51-.29.51-1.82,3.42-1.41,4,.64,1,7,.84,8.08.84l36.87-.38c1.48,0,3,0,4.41.1,17.91.6,5.21,14.7-.79,21.48-10.05,11.37-17,15.2-31.84,15.08l-9.69.09c-1.08,0-6.93-.25-7.62.45-.16.46.54,2,.73,2.36a47,47,0,0,0,41.89,26.56Z"></path><path class="cls-1" d="M267.26,94.09a44.12,44.12,0,0,0-14,32.88l0,41.26c0,14.87-3.63,21.73-15.07,31.84-8.61,7.61-21.48,18.65-21.48-1.18q0-65.47,0-130.95c0-2.71.44-5.85,2.89-7.48,6-4,19.63,6,34.47-4.29,13.92-9.65,29.58-14.09,46.51-14.09,46.63,0,84.17,38.47,84.27,84.89q0,15.41,0,30.81v10.75c.12,14.82-3.7,21.81-15.07,31.86-8.6,7.61-21.48,18.65-21.48-1.19q0-21.31,0-42.65V127c0-13-4.8-23.89-14.18-32.87-17.18-16.47-49.75-16.65-66.87,0Z"></path><path class="cls-1" d="M192.32,144.86v23.88c0,14.79-3.61,21.62-15,31.7-8.57,7.56-21.39,18.56-21.39-1.18v-1.7c0-15.73-.07-31.46,0-47.19v-1.69h0l0-63.24v-1.7c0-14.79,3.6-21.63,15-31.69,8.56-7.58,21.38-18.57,21.38,1.17v1.69h0q0,44.13,0,88.24v1.7Z"></path><path class="cls-2" d="M40,285.73c-.39.54-.78,1.06-1.18,1.58a13.87,13.87,0,0,1-1.29,1.46,19.31,19.31,0,0,1-4.47,3.5,19.59,19.59,0,0,1-2.53,1.32,20.83,20.83,0,0,1-2.75,1,22.3,22.3,0,0,1-5.86.8,20.87,20.87,0,0,1-8.43-1.72A22,22,0,0,1,1.91,282.06a21.54,21.54,0,0,1,0-16.87,23.88,23.88,0,0,1,4.65-6.94,23.74,23.74,0,0,1,6.94-4.65,20.87,20.87,0,0,1,8.43-1.72,22.3,22.3,0,0,1,5.86.8,21.85,21.85,0,0,1,5.28,2.24,20.9,20.9,0,0,1,2.38,1.64,25,25,0,0,1,2.09,1.86,22.41,22.41,0,0,1,2.47,3,1.36,1.36,0,0,1,.17,1.24,1.54,1.54,0,0,1-.92.88L35,265.31a2,2,0,0,1-1.41.08,2.2,2.2,0,0,1-1.23-.77c-.2-.19-.39-.39-.58-.6s-.38-.42-.57-.61a15.19,15.19,0,0,0-1.29-1.15,16.63,16.63,0,0,0-1.41-1,11.36,11.36,0,0,0-1.55-.8c-.53-.23-1.07-.44-1.6-.63a11.4,11.4,0,0,0-3.45-.52,13.06,13.06,0,0,0-5.39,1.15,13.68,13.68,0,0,0-4.3,3.15,16.16,16.16,0,0,0-2.93,4.53,13.86,13.86,0,0,0-1.09,5.46,13.57,13.57,0,0,0,1.09,5.45,16.16,16.16,0,0,0,2.93,4.53,12,12,0,0,0,4.3,3.1,12.14,12.14,0,0,0,5.39,1.2,11.71,11.71,0,0,0,3.45-.51c.53-.19,1.07-.4,1.6-.63a11.42,11.42,0,0,0,1.55-.81,11.92,11.92,0,0,0,1.41-1c.44-.36.87-.76,1.29-1.18l.57-.6c.19-.21.38-.41.58-.6a2.37,2.37,0,0,1,1.23-.81,2,2,0,0,1,1.41.06l4.24,1.72a1.55,1.55,0,0,1,.92.92A1.4,1.4,0,0,1,40,285.73Z"></path><path class="cls-2" d="M86.08,295.37a20.87,20.87,0,0,1-8.43-1.72,21.9,21.9,0,0,1-11.59-11.59,21.74,21.74,0,0,1,0-16.95,21.82,21.82,0,0,1,11.59-11.62,21.57,21.57,0,0,1,16.93,0,21.91,21.91,0,0,1,11.59,11.62,21.74,21.74,0,0,1,0,16.95,22,22,0,0,1-11.59,11.59A21.07,21.07,0,0,1,86.08,295.37Zm0-36.09a12.28,12.28,0,0,0-5.35,1.18,14.44,14.44,0,0,0-4.35,3.12,14.66,14.66,0,0,0-3,4.57,14.1,14.1,0,0,0,0,10.87,15,15,0,0,0,3,4.56,14.39,14.39,0,0,0,4.35,3.16,12.84,12.84,0,0,0,10.71,0,14.51,14.51,0,0,0,4.35-3.16,15.35,15.35,0,0,0,3-4.56,14.22,14.22,0,0,0,0-10.87,15,15,0,0,0-3-4.57,14.56,14.56,0,0,0-4.35-3.12A12.35,12.35,0,0,0,86.11,259.28Z"></path><path class="cls-2" d="M176.63,253.54v39.25a1.72,1.72,0,0,1-.52,1.26,1.64,1.64,0,0,1-1.21.52h-4.53a1.78,1.78,0,0,1-1.78-1.78V275.12c0-.5-.1-.8-.31-.89s-.47.07-.78.49l-10.9,13a1.37,1.37,0,0,1-2.24,0l-10.84-13c-.31-.39-.58-.54-.8-.46s-.35.36-.35.86v17.67a1.78,1.78,0,0,1-1.78,1.78h-4.47a1.76,1.76,0,0,1-1.78-1.78V253.54a.77.77,0,0,1,.69-.86,1.14,1.14,0,0,1,1.14.46l18.14,22.38a1.46,1.46,0,0,0,1.14.52,1.5,1.5,0,0,0,1.15-.52l18.19-22.38a1.17,1.17,0,0,1,1.15-.46A.77.77,0,0,1,176.63,253.54Z"></path><path class="cls-2" d="M215.82,294.05a16,16,0,0,1-5.69-3.56,15,15,0,0,1-3.67-5.56,19.83,19.83,0,0,1-1.26-7.29V254.4a1.71,1.71,0,0,1,.52-1.26,1.64,1.64,0,0,1,1.2-.51h4.53a1.74,1.74,0,0,1,1.78,1.77v23.19a11.63,11.63,0,0,0,1,5.22,10.4,10.4,0,0,0,2.52,3.27,8.6,8.6,0,0,0,3.27,1.66c.61.15,1.18.27,1.69.35a11.09,11.09,0,0,0,1.47.11,13,13,0,0,0,3.1-.46,7.71,7.71,0,0,0,3.27-1.66,9.52,9.52,0,0,0,2.58-3.27,11.64,11.64,0,0,0,1-5.22V254.4a1.76,1.76,0,0,1,1.78-1.77h4.48a1.74,1.74,0,0,1,1.77,1.77v23.24a22.3,22.3,0,0,1-.31,3.82,19.11,19.11,0,0,1-.95,3.47,16.1,16.1,0,0,1-3.61,5.56,16.66,16.66,0,0,1-5.68,3.56,20.65,20.65,0,0,1-7.46,1.26A20.13,20.13,0,0,1,215.82,294.05Z"></path><path class="cls-2" d="M277.78,271.39v21.4a1.76,1.76,0,0,1-1.77,1.78h-4.54a1.61,1.61,0,0,1-1.2-.52,1.68,1.68,0,0,1-.52-1.26V253.54a.82.82,0,0,1,.72-.89,1.35,1.35,0,0,1,1.23.32l25.19,23.81c.38.35.7.46.95.35s.37-.42.37-.92V254.4a1.76,1.76,0,0,1,1.78-1.77h4.48a1.74,1.74,0,0,1,1.77,1.77v39.19a.81.81,0,0,1-.71.89,1.5,1.5,0,0,1-1.29-.31L279.1,270.76c-.38-.31-.7-.4-.94-.29S277.78,270.89,277.78,271.39Z"></path><path class="cls-2" d="M342.16,294.57h-4.53a1.59,1.59,0,0,1-1.23-.52,1.73,1.73,0,0,1-.49-1.26V254.4a1.77,1.77,0,0,1,.49-1.26,1.61,1.61,0,0,1,1.23-.51h4.53a1.76,1.76,0,0,1,1.78,1.77v38.39a1.78,1.78,0,0,1-1.78,1.78Z"></path><path class="cls-2" d="M411.13,285.73c-.38.54-.77,1.06-1.18,1.58a13.87,13.87,0,0,1-1.29,1.46,19.31,19.31,0,0,1-4.47,3.5,19.59,19.59,0,0,1-2.53,1.32,20.83,20.83,0,0,1-2.75,1,22.23,22.23,0,0,1-5.85.8,20.89,20.89,0,0,1-8.44-1.72A22,22,0,0,1,373,282.06a21.54,21.54,0,0,1,0-16.87,21.55,21.55,0,0,1,11.59-11.59,20.89,20.89,0,0,1,8.44-1.72,22.23,22.23,0,0,1,5.85.8,21.85,21.85,0,0,1,5.28,2.24,20.9,20.9,0,0,1,2.38,1.64,25,25,0,0,1,2.09,1.86,22.41,22.41,0,0,1,2.47,3,1.33,1.33,0,0,1,.17,1.24,1.54,1.54,0,0,1-.92.88l-4.24,1.73a2,2,0,0,1-1.41.08,2.23,2.23,0,0,1-1.23-.77q-.28-.28-.57-.6l-.58-.61a15.19,15.19,0,0,0-1.29-1.15c-.44-.34-.91-.66-1.4-1a12,12,0,0,0-1.55-.8c-.54-.23-1.08-.44-1.61-.63a11.38,11.38,0,0,0-3.44-.52,13.07,13.07,0,0,0-5.4,1.15,13.68,13.68,0,0,0-4.3,3.15,16.16,16.16,0,0,0-2.93,4.53,14,14,0,0,0-1.09,5.46,13.74,13.74,0,0,0,1.09,5.45,16.16,16.16,0,0,0,2.93,4.53,12,12,0,0,0,4.3,3.1,12.21,12.21,0,0,0,5.4,1.2,11.7,11.7,0,0,0,3.44-.51c.53-.19,1.07-.4,1.61-.63a12,12,0,0,0,1.55-.81,12.68,12.68,0,0,0,1.4-1c.44-.36.87-.76,1.29-1.18l.58-.6.57-.6a2.41,2.41,0,0,1,1.23-.81,2,2,0,0,1,1.41.06l4.24,1.72a1.55,1.55,0,0,1,.92.92A1.37,1.37,0,0,1,411.13,285.73Z"></path><path class="cls-2" d="M432.36,293l19.91-39.76a1.3,1.3,0,0,1,2.3,0L474.48,293a1.06,1.06,0,0,1,.08,1.09,1,1,0,0,1-1,.46h-5.22a2.76,2.76,0,0,1-1.49-.46,2.48,2.48,0,0,1-1-1.15l-1.72-3.44a3.05,3.05,0,0,0-1.06-1.09,2.67,2.67,0,0,0-1.46-.46h-16.3a2.79,2.79,0,0,0-1.49.46,2.46,2.46,0,0,0-1,1.15L441.08,293a2.91,2.91,0,0,1-1.06,1.15,2.67,2.67,0,0,1-1.46.46h-5.22a1,1,0,0,1-1-.46A1.17,1.17,0,0,1,432.36,293Zm16.81-12h8.5a1,1,0,0,0,1-.49,1.23,1.23,0,0,0,0-1.12l-4.48-9.46c-.19-.46-.43-.69-.74-.69s-.56.23-.75.69l-4.53,9.46a1.22,1.22,0,0,0,0,1.15A1.11,1.11,0,0,0,449.17,281Z"></path><path class="cls-2" d="M522.73,301.51a4.92,4.92,0,0,1-.92,2.7,5,5,0,0,1-1.72,1.43,6.18,6.18,0,0,1-3.12.61c-1-.1-1.7-.19-2.16-.26a9.26,9.26,0,0,1-1.06-.35,5.28,5.28,0,0,1-.89-.4,1,1,0,0,1-.4-1.2c0-.12.12-.3.23-.55l.23-.49a1.81,1.81,0,0,1,.63-.77.77.77,0,0,1,.75.14.88.88,0,0,0,.4.15,2.9,2.9,0,0,1,.57.14,5.6,5.6,0,0,0,1.61.09,3,3,0,0,0,1.21-.38,1.15,1.15,0,0,0,.63-1.09,1.23,1.23,0,0,0-.75-1.14,2.1,2.1,0,0,0-1.06-.38,3.47,3.47,0,0,0-1,.09,4.41,4.41,0,0,0-.84.26,1.49,1.49,0,0,0-.4.2,1.53,1.53,0,0,1-.74,0,.67.67,0,0,1-.52-.38c-.19-.27-.11-1,.23-2.29l.57-2.07c.08-.27,0-.42-.4-.46a19.45,19.45,0,0,1-5.45-1.49,22,22,0,0,1-11.59-11.59,21.54,21.54,0,0,1,0-16.87,21.55,21.55,0,0,1,11.59-11.59,20.89,20.89,0,0,1,8.44-1.72,22.23,22.23,0,0,1,5.85.8,21.85,21.85,0,0,1,5.28,2.24,20.9,20.9,0,0,1,2.38,1.64,25,25,0,0,1,2.09,1.86,22.41,22.41,0,0,1,2.47,3,1.33,1.33,0,0,1,.17,1.24,1.54,1.54,0,0,1-.92.88l-4.24,1.73a2,2,0,0,1-1.41.08,2.23,2.23,0,0,1-1.23-.77l-1.15-1.21a15.19,15.19,0,0,0-1.29-1.15,16.63,16.63,0,0,0-1.41-1,10.8,10.8,0,0,0-1.55-.8c-.53-.23-1.07-.44-1.6-.63a11.38,11.38,0,0,0-3.44-.52,13.07,13.07,0,0,0-5.4,1.15,13.68,13.68,0,0,0-4.3,3.15,16.16,16.16,0,0,0-2.93,4.53,14,14,0,0,0-1.09,5.46,13.74,13.74,0,0,0,1.09,5.45,16.16,16.16,0,0,0,2.93,4.53,12,12,0,0,0,4.3,3.1,12.18,12.18,0,0,0,5.4,1.2,11.7,11.7,0,0,0,3.44-.51c.53-.19,1.07-.4,1.6-.63a10.86,10.86,0,0,0,1.55-.81,11.92,11.92,0,0,0,1.41-1c.44-.36.87-.76,1.29-1.18l1.15-1.2a2.41,2.41,0,0,1,1.23-.81,2,2,0,0,1,1.41.06l4.24,1.72a1.55,1.55,0,0,1,.92.92,1.37,1.37,0,0,1-.17,1.26c-.38.54-.77,1.06-1.18,1.58a13.87,13.87,0,0,1-1.29,1.46,19.31,19.31,0,0,1-4.47,3.5,19.59,19.59,0,0,1-2.53,1.32,20.83,20.83,0,0,1-2.75,1,21.22,21.22,0,0,1-2.1.46c-.7.11-1.42.21-2.15.28a.54.54,0,0,0-.4.41c-.15.53-.18.83-.09.89a.63.63,0,0,0,.26.08,2.09,2.09,0,0,1,.78,0c.28.06.58.12.89.2A4.16,4.16,0,0,1,522.73,301.51Z"></path><path class="cls-2" d="M580.91,295.37a20.87,20.87,0,0,1-8.43-1.72,22,22,0,0,1-11.59-11.59,21.74,21.74,0,0,1,0-16.95,21.91,21.91,0,0,1,11.59-11.62,21.57,21.57,0,0,1,16.93,0A21.91,21.91,0,0,1,601,265.11a21.74,21.74,0,0,1,0,16.95,22,22,0,0,1-11.59,11.59A21,21,0,0,1,580.91,295.37Zm0-36.09a12.28,12.28,0,0,0-5.35,1.18,14.44,14.44,0,0,0-4.35,3.12,14.84,14.84,0,0,0-3,4.57,14.1,14.1,0,0,0,0,10.87,15.16,15.16,0,0,0,3,4.56,14.39,14.39,0,0,0,4.35,3.16,12.84,12.84,0,0,0,10.71,0,14.39,14.39,0,0,0,4.35-3.16,15.35,15.35,0,0,0,3-4.56,14.1,14.1,0,0,0,0-10.87,15,15,0,0,0-3-4.57,14.44,14.44,0,0,0-4.35-3.12A12.32,12.32,0,0,0,580.94,259.28Zm.43-9.35a5,5,0,0,1-.8-.55,10.88,10.88,0,0,0-1-.71,7.4,7.4,0,0,0-1.24-.58,4.15,4.15,0,0,0-1.34-.23,2.1,2.1,0,0,0-1.67.75c-.34.46-.61.84-.8,1.15a1.61,1.61,0,0,1-.55.51,1.33,1.33,0,0,1-1.12,0l-2-.69a1.65,1.65,0,0,1-1-.6.92.92,0,0,1-.06-.83l.23-.52c.08-.15.15-.32.23-.51a7.23,7.23,0,0,1,2.47-3.22,6.31,6.31,0,0,1,3.79-1.2,6.78,6.78,0,0,1,2.78.46,11.06,11.06,0,0,1,1.78,1c.51.37,1,.71,1.52,1a3.58,3.58,0,0,0,2,.49,2.47,2.47,0,0,0,1.4-.26,4.61,4.61,0,0,0,1.35-1.29,1.39,1.39,0,0,1,1.72-.4l2.07.8a1.39,1.39,0,0,1,.83.72,1.3,1.3,0,0,1,0,.89,2.31,2.31,0,0,0-.14.23l-.15.29a6.27,6.27,0,0,1-1.26,1.83,8.16,8.16,0,0,1-2.52,2,5.36,5.36,0,0,1-1,.35,6.89,6.89,0,0,1-1.6.17,8.74,8.74,0,0,1-1.92-.23A5.54,5.54,0,0,1,581.37,249.93Z"></path><path class="cls-2" d="M637.2,261.46v6.94a1.76,1.76,0,0,0,1.78,1.78h16.76a1.75,1.75,0,0,1,1.26.52,1.73,1.73,0,0,1,.51,1.26v3.73a1.76,1.76,0,0,1-1.77,1.78H639a1.78,1.78,0,0,0-1.78,1.78v6.31a1.78,1.78,0,0,0,1.78,1.78h19.34a1.7,1.7,0,0,1,1.26.52,1.72,1.72,0,0,1,.52,1.26v3.67a1.72,1.72,0,0,1-.52,1.26,1.7,1.7,0,0,1-1.26.52H631a1.78,1.78,0,0,1-1.78-1.78V254.35a1.76,1.76,0,0,1,1.78-1.78h27.37a1.73,1.73,0,0,1,1.26.51,1.76,1.76,0,0,1,.52,1.27v3.55a1.76,1.76,0,0,1-.52,1.27,1.73,1.73,0,0,1-1.26.51H639a1.72,1.72,0,0,0-1.26.52A1.7,1.7,0,0,0,637.2,261.46Z"></path><path class="cls-2" d="M687,287.63l2.41-3.56a1.56,1.56,0,0,1,1.09-.75,1.85,1.85,0,0,1,1.32.29,46.17,46.17,0,0,0,5,2.75,15.66,15.66,0,0,0,7,1.61,10.43,10.43,0,0,0,3.45-.52,7.46,7.46,0,0,0,2.52-1.26,5.47,5.47,0,0,0,1.55-1.78,4,4,0,0,0,.52-2,3.33,3.33,0,0,0-.81-2.18,6.72,6.72,0,0,0-2.06-1.43,11,11,0,0,0-1.38-.52c-.5-.15-1.05-.3-1.66-.46s-1.16-.28-1.75-.4l-1.87-.34-1.37-.26c-.5-.1-1-.2-1.55-.32a17.4,17.4,0,0,1-3.45-.86,16.4,16.4,0,0,1-3.5-1.43,12.13,12.13,0,0,1-3.1-2.24,9.49,9.49,0,0,1-2.23-3.21,11,11,0,0,1-.81-4.36,11.81,11.81,0,0,1,1.5-6.14,11.69,11.69,0,0,1,3.78-3.85,17.26,17.26,0,0,1,5.17-2,26.48,26.48,0,0,1,5.51-.57,28.86,28.86,0,0,1,4.7.34c.69.12,1.35.26,2,.43s1.25.36,1.86.55a16.75,16.75,0,0,1,1.78.77c.58.29,1.13.58,1.67.89.38.23.74.46,1.09.69s.72.46,1.14.69a1.76,1.76,0,0,1,.75,1.15,1.73,1.73,0,0,1-.34,1.32l-2.41,3.44a1.74,1.74,0,0,1-1.18.74,1.9,1.9,0,0,1-1.35-.28,22,22,0,0,0-4.24-2.18,15.27,15.27,0,0,0-5.8-1.09c-.34,0-.72,0-1.12.05s-.81.1-1.23.18a11.27,11.27,0,0,0-2.53.86,8.47,8.47,0,0,0-1.06.63,5.6,5.6,0,0,0-.89.8,3.33,3.33,0,0,0-.74,2.18,2.78,2.78,0,0,0,.91,2.12,7.37,7.37,0,0,0,2.36,1.44c.49.19,1,.36,1.52.51s1.06.31,1.63.46,1.14.29,1.7.41,1.09.24,1.63.4.86.17,1.32.28A14.59,14.59,0,0,0,707,270c.54.08,1.09.18,1.67.32s1.14.29,1.72.48c.3.08.62.18.94.29l.95.35c.46.19,1,.44,1.58.74a11.93,11.93,0,0,1,1.52.92,6.81,6.81,0,0,1,.83.6q.38.32.72.66a9.72,9.72,0,0,1,2.18,3.33,12.29,12.29,0,0,1,.86,4.82,13.25,13.25,0,0,1-1.15,5.68,10.18,10.18,0,0,1-3.27,4,14.08,14.08,0,0,1-5.05,2.41,25.56,25.56,0,0,1-6.48.8,29,29,0,0,1-5.8-.51,20.68,20.68,0,0,1-4.53-1.32c-.69-.27-1.36-.57-2-.89s-1.28-.68-1.89-1.06c-.38-.23-.77-.47-1.15-.72s-.78-.53-1.2-.83a1.6,1.6,0,0,1-.75-1.09A1.8,1.8,0,0,1,687,287.63Z"></path><path class="cls-1" d="M719.68,126.38c0-23.38-8.53-43.25-25.23-59.61s-36.73-24.69-60.11-24.69-43.35,8.33-60,24.69S549.22,103,549.22,126.38s8.46,43.17,25.14,59.43,36.76,24.59,60.06,24.59H705.1c10.83,0,14.59-1.5,14.59-13.19Zm-37.23,15.34V150a25.57,25.57,0,0,1-25.57,25.57H634.32c-.53,0-1.06,0-1.58,0a3,3,0,0,1-.42,0l-.87,0c-.28,0-.56,0-.83-.06s-.84-.06-1.26-.11l-.91-.1c-.15,0-.29,0-.43-.06-.3,0-.59-.07-.88-.12l-.14,0c-.92-.14-1.83-.3-2.72-.5l-.34-.07-1.44-.34c-.54-.13-1.07-.28-1.61-.44s-1.34-.39-2-.62l-1.51-.54-1.11-.44c-.48-.19-.95-.39-1.42-.6l-.53-.24c-.22-.09-.43-.19-.66-.31s-.36-.16-.55-.26c-.46-.22-.92-.46-1.38-.71-.8-.42-1.58-.87-2.36-1.34q-.75-.45-1.47-.93c-.48-.32-1-.64-1.43-1s-1-.71-1.45-1.08c-.21-.15-.42-.32-.62-.48a48.28,48.28,0,0,1-9.32-9.83c-.67-.94-1.31-1.91-1.91-2.9a47.38,47.38,0,0,1-3.63-7.31c-.43-1.09-.82-2.2-1.17-3.34a47.88,47.88,0,0,1-2.17-14.3h0a48,48,0,0,1,.65-7.92c.06-.32.12-.64.17-.95,0-.09,0-.17.05-.27a48.14,48.14,0,0,1,13.08-24.72l.43-.43c1-1,2.09-2,3.22-2.9.44-.35.87-.7,1.32-1s.92-.71,1.4-1l.35-.26c.32-.23.65-.44,1-.66a47.78,47.78,0,0,1,21.55-7.69c.41,0,.82-.08,1.22-.1s.69-.06,1-.07c.88-.05,1.77-.08,2.66-.08h0c.84,0,1.68,0,2.52.07l1.18.08c.31,0,.61,0,.9.08l.56,0c.39,0,.78.08,1.17.15s.58.07.87.12.75.11,1.12.17l1.38.26c.39.08.78.16,1.16.26l1.3.32,1.2.32.94.29c.31.09.61.18.91.29.06,0,.1,0,.15,0l.7.24.69.25c.29.1.59.22.88.34s.74.29,1.1.45c.71.3,1.42.62,2.12,1,.35.16.7.34,1.05.52l1,.54,1,.57c.33.18.66.38,1,.59s.66.4,1,.61.64.42,1,.64.64.43,1,.66.63.46.93.69.62.45.92.7.6.48.9.72.6.5.88.75.59.5.86.77l.85.79c.29.26.56.53.83.8q.76.77,1.5,1.56c.48.54,1,1.08,1.42,1.64.31.37.61.75.91,1.12s.48.61.7.92c.7.92,1.36,1.87,2,2.85.21.33.42.65.61,1,.4.65.79,1.33,1.16,2,.56,1,1.08,2.07,1.55,3.14.17.35.32.71.47,1.06s.3.73.45,1.1.26.64.37,1,.3.82.44,1.23c.25.74.49,1.49.7,2.26.1.38.21.76.31,1.15.15.54.27,1.08.39,1.63s.23,1.1.34,1.65c0,.17.05.33.08.49.1.55.19,1.1.26,1.66s.14,1.11.2,1.67c.09.81.15,1.62.18,2.44s.07,1.65.07,2.49Z"></path><path class="cls-2" d="M707.11,0a12.65,12.65,0,1,1-13.06,12.6A12.74,12.74,0,0,1,707,0ZM707,2.53a9.78,9.78,0,0,0-9.68,10.07,9.76,9.76,0,0,0,9.84,10.06c5.53.08,9.6-4.45,9.6-10.06A9.73,9.73,0,0,0,707,2.53ZM705,19.13h-2.92V6.61A24.6,24.6,0,0,1,707,6.15c2.39,0,3.46.38,4.38,1a3.46,3.46,0,0,1,1.23,2.69,3.23,3.23,0,0,1-2.61,3V13c1.23.39,1.92,1.39,2.3,3.08.39,1.92.62,2.69.93,3.07H710a9.79,9.79,0,0,1-1-3c-.23-1.38-1-2-2.61-2H705Zm.08-7.07h1.38c1.62,0,2.92-.54,2.92-1.84s-.84-1.92-2.69-1.92a6.84,6.84,0,0,0-1.61.15Z"></path></svg> 