<svg width="993" height="445" viewBox="0 0 993 445" fill="none" xmlns="http://www.w3.org/2000/svg">
<path d="M484 0L447.667 104.278H295.515V435H187.838V104.278H0L35.6467 0H484Z" fill="#1D1E1C"/>
<path d="M700 435H437.616C378.53 435 349 375.443 349 313.16V158H456.848V283.782C456.848 316.637 473.332 334.447 498.738 334.447H663.597L700 435Z" fill="#1D1E1C"/>
<path d="M788.601 48.5498C781.883 34.3319 771.262 22.3137 757.972 13.8953C744.683 5.47694 729.274 1.00485 713.539 1.00001C697.715 0.993467 682.211 5.4532 668.812 13.8656C655.414 22.278 644.665 34.3009 637.805 48.5498L512 286.363H633.198L703.535 157.719C704.364 155.736 705.761 154.043 707.55 152.852C709.339 151.661 711.441 151.026 713.591 151.026C715.741 151.026 717.843 151.661 719.632 152.852C721.422 154.043 722.818 155.736 723.647 157.719L874.364 435H993L788.601 48.5498Z" fill="#1D1E1C"/>
</svg>
