<svg width="60" height="60" viewBox="0 0 60 60" fill="none" xmlns="http://www.w3.org/2000/svg">
<path fill-rule="evenodd" clip-rule="evenodd" d="M57.8571 5H34.2857L32.7857 5.64286L30 8.38571L27.2143 5.64286L25.7143 5H2.14286L0 7.14286V50L2.14286 52.1429H24.8143L28.5 55.7857H31.5L35.1857 52.1429H57.8571L60 50V7.14286L57.8571 5ZM27.8571 49.2286L27.0857 48.5L25.7143 47.8571H4.28571V9.28571H24.8143L27.9857 12.4571L27.8571 49.2286ZM55.7143 47.8571H34.2857L32.7857 48.5L32.1857 49.0571V12.2857L35.1857 9.28571H55.7143V47.8571ZM21.4286 17.8571H8.57143V22.1429H21.4286V17.8571ZM21.4286 35H8.57143V39.2857H21.4286V35ZM8.57143 26.4286H21.4286V30.7143H8.57143V26.4286ZM51.4286 17.8571H38.5714V22.1429H51.4286V17.8571ZM38.5714 26.4286H51.4286V30.7143H38.5714V26.4286ZM38.5714 35H51.4286V39.2857H38.5714V35Z" fill="white"/>
</svg>
