<svg width="60" height="60" viewBox="0 0 60 60" fill="none" xmlns="http://www.w3.org/2000/svg">
<path d="M57.1875 5.78125H2.8125C1.26563 5.78125 0 7.04688 0 8.59375V51.4066C0 52.9534 1.26563 54.2191 2.8125 54.2191H57.1875C58.7344 54.2191 60 52.9534 60 51.4066V8.59375C60 7.04688 58.7344 5.78125 57.1875 5.78125ZM56.25 49.4434L53.655 47.4728H46.1981L50.1291 50.4691H46.8825L42.9375 47.4719H17.0616L13.1166 50.4681H9.87L13.8009 47.4719H6.345L3.75 49.4425V9.53125H56.25V49.4434Z" fill="white"/>
<path d="M7.99874 16.1966C8.85202 16.1966 9.54374 15.5057 9.54374 14.6535C9.54374 13.8012 8.85202 13.1104 7.99874 13.1104C7.14546 13.1104 6.45374 13.8012 6.45374 14.6535C6.45374 15.5057 7.14546 16.1966 7.99874 16.1966Z" fill="white"/>
<path d="M12.0947 16.1966C12.948 16.1966 13.6397 15.5057 13.6397 14.6535C13.6397 13.8012 12.948 13.1104 12.0947 13.1104C11.2414 13.1104 10.5497 13.8012 10.5497 14.6535C10.5497 15.5057 11.2414 16.1966 12.0947 16.1966Z" fill="white"/>
<path d="M16.1906 16.1966C17.0439 16.1966 17.7356 15.5057 17.7356 14.6535C17.7356 13.8012 17.0439 13.1104 16.1906 13.1104C15.3374 13.1104 14.6456 13.8012 14.6456 14.6535C14.6456 15.5057 15.3374 16.1966 16.1906 16.1966Z" fill="white"/>
<path d="M23.6746 12.2266L20.4159 17.2159H53.5462V12.2266H23.6746Z" fill="white"/>
<path d="M25.0885 24.9521L12.1154 30.5668V33.6906L25.0885 39.3325V35.679L16.0397 32.0903L25.0885 28.6309V24.9521Z" fill="white"/>
<path d="M30.9751 22.2407L26.2894 41.8101H28.9613L33.6985 22.2407H30.9751Z" fill="white"/>
<path d="M34.8994 24.9785V28.6057L43.9603 32.1298L34.8994 35.6923V39.3457L47.8847 33.6907V30.5941L34.8994 24.9785Z" fill="white"/>
</svg>
