<svg width="60" height="60" viewBox="0 0 60 60" fill="none" xmlns="http://www.w3.org/2000/svg">
<g clip-path="url(#clip0_786_17)">
<path d="M30 0.9375C13.9453 0.9375 0.9375 13.9453 0.9375 30C0.9375 46.0547 13.9453 59.0625 30 59.0625C46.0547 59.0625 59.0625 46.0547 59.0625 30C59.0625 13.9453 46.0547 0.9375 30 0.9375ZM30 12.1875C35.6953 12.1875 40.3125 16.8047 40.3125 22.5C40.3125 28.1953 35.6953 32.8125 30 32.8125C24.3047 32.8125 19.6875 28.1953 19.6875 22.5C19.6875 16.8047 24.3047 12.1875 30 12.1875ZM30 52.5C23.1211 52.5 16.957 49.3828 12.832 44.5078C15.0352 40.3594 19.3477 37.5 24.375 37.5C24.6562 37.5 24.9375 37.5469 25.207 37.6289C26.7305 38.1211 28.3242 38.4375 30 38.4375C31.6758 38.4375 33.2812 38.1211 34.793 37.6289C35.0625 37.5469 35.3438 37.5 35.625 37.5C40.6523 37.5 44.9648 40.3594 47.168 44.5078C43.043 49.3828 36.8789 52.5 30 52.5Z" fill="white"/>
</g>
<defs>
<clipPath id="clip0_786_17">
<rect width="60" height="60" fill="white"/>
</clipPath>
</defs>
</svg>
