<svg width="60" height="60" viewBox="0 0 60 60" fill="none" xmlns="http://www.w3.org/2000/svg">
<g clip-path="url(#clip0_786_21)">
<path d="M43.3333 60H16.6666C16.372 60 16.0893 59.8946 15.881 59.7071C15.6726 59.5196 15.5555 59.2652 15.5555 59C15.5555 58.7348 15.6726 58.4804 15.881 58.2929C16.0893 58.1054 16.372 58 16.6666 58H43.3333C43.628 58 43.9106 58.1054 44.119 58.2929C44.3273 58.4804 44.4444 58.7348 44.4444 59C44.4444 59.2652 44.3273 59.5196 44.119 59.7071C43.9106 59.8946 43.628 60 43.3333 60ZM53.3333 0H6.66665C6.37197 0 6.08935 0.105357 5.88098 0.292893C5.67261 0.48043 5.55554 0.734784 5.55554 1V8H54.4444V1C54.4444 0.734784 54.3273 0.48043 54.1189 0.292893C53.9106 0.105357 53.628 0 53.3333 0ZM28.8888 5H9.99998C9.7053 5 9.42268 4.89464 9.21431 4.70711C9.00593 4.51957 8.88887 4.26522 8.88887 4C8.88887 3.73478 9.00593 3.48043 9.21431 3.29289C9.42268 3.10536 9.7053 3 9.99998 3H28.8888C29.1835 3 29.4661 3.10536 29.6745 3.29289C29.8829 3.48043 30 3.73478 30 4C30 4.26522 29.8829 4.51957 29.6745 4.70711C29.4661 4.89464 29.1835 5 28.8888 5ZM35.5555 6C35.116 6 34.6864 5.8827 34.3209 5.66294C33.9555 5.44318 33.6706 5.13082 33.5024 4.76537C33.3342 4.39991 33.2902 3.99778 33.376 3.60982C33.4617 3.22186 33.6734 2.86549 33.9842 2.58579C34.2949 2.30608 34.6909 2.1156 35.122 2.03843C35.553 1.96126 35.9999 2.00087 36.4059 2.15224C36.812 2.30362 37.159 2.55996 37.4032 2.88886C37.6474 3.21776 37.7777 3.60444 37.7777 4C37.7777 4.53043 37.5436 5.03914 37.1269 5.41421C36.7101 5.78929 36.1449 6 35.5555 6ZM42.2222 6C41.7827 6 41.353 5.8827 40.9876 5.66294C40.6221 5.44318 40.3373 5.13082 40.1691 4.76537C40.0009 4.39991 39.9569 3.99778 40.0426 3.60982C40.1284 3.22186 40.34 2.86549 40.6508 2.58579C40.9616 2.30608 41.3576 2.1156 41.7886 2.03843C42.2197 1.96126 42.6665 2.00087 43.0726 2.15224C43.4786 2.30362 43.8257 2.55996 44.0699 2.88886C44.3141 3.21776 44.4444 3.60444 44.4444 4C44.4444 4.53043 44.2103 5.03914 43.7935 5.41421C43.3768 5.78929 42.8115 6 42.2222 6ZM48.8888 6C48.4493 6 48.0197 5.8827 47.6542 5.66294C47.2888 5.44318 47.004 5.13082 46.8358 4.76537C46.6676 4.39991 46.6236 3.99778 46.7093 3.60982C46.7951 3.22186 47.0067 2.86549 47.3175 2.58579C47.6283 2.30608 48.0242 2.1156 48.4553 2.03843C48.8864 1.96126 49.3332 2.00087 49.7392 2.15224C50.1453 2.30362 50.4924 2.55996 50.7365 2.88886C50.9807 3.21776 51.111 3.60444 51.111 4C51.111 4.53043 50.8769 5.03914 50.4602 5.41421C50.0434 5.78929 49.4782 6 48.8888 6ZM5.55554 10V30C5.55554 30.2652 5.67261 30.5196 5.88098 30.7071C6.08935 30.8946 6.37197 31 6.66665 31H53.3333C53.628 31 53.9106 30.8946 54.1189 30.7071C54.3273 30.5196 54.4444 30.2652 54.4444 30V10H5.55554ZM12.0333 23.45C12.1941 23.6705 12.2517 23.9392 12.1934 24.1976C12.1351 24.4561 11.9658 24.6834 11.7222 24.83C11.5433 24.9428 11.3295 25.0022 11.1111 25C10.9281 24.9991 10.7481 24.9576 10.5873 24.8791C10.4264 24.8006 10.2895 24.6876 10.1889 24.55L7.96665 21.55C7.84718 21.3867 7.7835 21.1955 7.7835 21C7.7835 20.8045 7.84718 20.6133 7.96665 20.45L10.1889 17.45C10.3625 17.256 10.6104 17.1273 10.884 17.0891C11.1576 17.0509 11.4372 17.1061 11.6679 17.2437C11.8987 17.3813 12.0641 17.5916 12.1317 17.8332C12.1993 18.0748 12.1642 18.3304 12.0333 18.55L10.2222 21L12.0333 23.45ZM17.7778 17.38L15.5555 25.12C15.4925 25.34 15.3482 25.5342 15.1462 25.6705C14.9443 25.8068 14.6967 25.8772 14.4444 25.87C14.3521 25.8798 14.2589 25.8798 14.1666 25.87C14.0183 25.841 13.8782 25.785 13.7549 25.7054C13.6315 25.6259 13.5276 25.5244 13.4495 25.4072C13.3714 25.2901 13.3209 25.1598 13.3009 25.0245C13.2809 24.8891 13.2919 24.7514 13.3333 24.62L15.5555 16.88C15.6292 16.6227 15.8134 16.4024 16.0676 16.2673C16.3218 16.1323 16.6252 16.0937 16.9111 16.16C17.1969 16.2263 17.4418 16.3921 17.5918 16.6209C17.7419 16.8497 17.7848 17.1227 17.7111 17.38H17.7778ZM23.1777 21.55L20.9555 24.55C20.8518 24.6919 20.7097 24.8076 20.5425 24.8863C20.3753 24.9651 20.1886 25.0042 20 25C19.7815 25.0022 19.5678 24.9428 19.3889 24.83C19.1453 24.6834 18.9759 24.4561 18.9177 24.1976C18.8594 23.9392 18.9169 23.6705 19.0777 23.45L20.8889 21L19.0777 18.55C18.9808 18.4416 18.91 18.3163 18.8699 18.1819C18.8298 18.0475 18.8214 17.9071 18.845 17.7696C18.8687 17.6321 18.924 17.5005 19.0074 17.3833C19.0908 17.2662 19.2004 17.166 19.3293 17.0891C19.4582 17.0122 19.6034 16.9604 19.7558 16.937C19.9082 16.9135 20.0644 16.919 20.2143 16.953C20.3642 16.9869 20.5046 17.0487 20.6265 17.1343C20.7484 17.2198 20.8491 17.3274 20.9222 17.45L23.1444 20.45C23.2639 20.6133 23.3276 20.8045 23.3276 21C23.3276 21.1955 23.2639 21.3867 23.1444 21.55H23.1777ZM52.2222 26C52.2222 26.7956 51.871 27.5587 51.2458 28.1213C50.6207 28.6839 49.7729 29 48.8888 29H30C29.1159 29 28.2681 28.6839 27.6429 28.1213C27.0178 27.5587 26.6666 26.7956 26.6666 26V16C26.6666 15.2044 27.0178 14.4413 27.6429 13.8787C28.2681 13.3161 29.1159 13 30 13H48.8888C49.7729 13 50.6207 13.3161 51.2458 13.8787C51.871 14.4413 52.2222 15.2044 52.2222 16V26Z" fill="white"/>
<path d="M60 8.99994V35.9999H3.1986e-05V8.99994C-0.00364954 8.02918 0.310547 7.07897 0.903376 6.26797C1.49621 5.45698 2.34139 4.82117 3.33336 4.43994V29.9999C3.33336 30.7956 3.68455 31.5587 4.30967 32.1213C4.93479 32.6839 5.78264 32.9999 6.66669 32.9999H53.3333C54.2174 32.9999 55.0652 32.6839 55.6903 32.1213C56.3155 31.5587 56.6666 30.7956 56.6666 29.9999V4.43994C57.6586 4.82117 58.5038 5.45698 59.0966 6.26797C59.6895 7.07897 60.0037 8.02918 60 8.99994ZM39.8778 57.9999H20.1222L23.9333 47.9999H36.0667L39.8778 57.9999Z" fill="white"/>
<path d="M0 38.0001V41.0001C0 42.3262 0.585315 43.598 1.62718 44.5356C2.66905 45.4733 4.08213 46.0001 5.55555 46.0001H54.4444C55.9178 46.0001 57.3309 45.4733 58.3727 44.5356C59.4146 43.598 59.9999 42.3262 59.9999 41.0001V38.0001H0ZM31.1111 43.0001H28.8889C28.5942 43.0001 28.3116 42.8947 28.1032 42.7072C27.8948 42.5197 27.7777 42.2653 27.7777 42.0001C27.7777 41.7349 27.8948 41.4805 28.1032 41.293C28.3116 41.1055 28.5942 41.0001 28.8889 41.0001H31.1111C31.4058 41.0001 31.6884 41.1055 31.8968 41.293C32.1051 41.4805 32.2222 41.7349 32.2222 42.0001C32.2222 42.2653 32.1051 42.5197 31.8968 42.7072C31.6884 42.8947 31.4058 43.0001 31.1111 43.0001ZM36.8111 27.0001H30.4555L33.3333 24.4401C33.4489 24.3327 33.5897 24.2501 33.7454 24.1981C33.9012 24.1462 34.0679 24.1264 34.2333 24.1401C34.3971 24.1563 34.5549 24.2051 34.6952 24.2829C34.8355 24.3607 34.9547 24.4657 35.0444 24.5901L36.8111 27.0001ZM48.6333 27.0001H39.4777L38.0555 25.0701L41.3888 21.4301C41.4921 21.3185 41.6211 21.2285 41.767 21.1663C41.9128 21.1042 42.0719 21.0713 42.2333 21.0701C42.3928 21.0586 42.553 21.0837 42.6988 21.1432C42.8445 21.2027 42.9711 21.2945 43.0666 21.4101L48.6333 27.0001Z" fill="white"/>
<path d="M48.8889 15H30C29.7053 15 29.4227 15.1054 29.2144 15.2929C29.006 15.4804 28.8889 15.7348 28.8889 16V25.59L31.7334 23C32.0716 22.6985 32.4777 22.4657 32.9242 22.3173C33.3708 22.1688 33.8475 22.1082 34.3223 22.1395C34.7971 22.1707 35.2589 22.2932 35.6767 22.4985C36.0945 22.7039 36.4586 22.9874 36.7445 23.33L39.7111 20.13C40.0206 19.8014 40.4051 19.5367 40.8384 19.3538C41.2717 19.1709 41.7437 19.0741 42.2222 19.07C42.692 19.0694 43.1565 19.1582 43.5854 19.3306C44.0144 19.5029 44.398 19.7549 44.7111 20.07L50 25.37V16C50 15.7348 49.8829 15.4804 49.6746 15.2929C49.4662 15.1054 49.1836 15 48.8889 15ZM34.4445 21C34.005 21 33.5753 20.8827 33.2099 20.6629C32.8444 20.4432 32.5596 20.1308 32.3914 19.7654C32.2232 19.3999 32.1792 18.9978 32.2649 18.6098C32.3507 18.2219 32.5623 17.8655 32.8731 17.5858C33.1839 17.3061 33.5799 17.1156 34.0109 17.0384C34.442 16.9613 34.8888 17.0009 35.2949 17.1522C35.7009 17.3036 36.048 17.56 36.2922 17.8889C36.5364 18.2178 36.6667 18.6044 36.6667 19C36.6667 19.5304 36.4326 20.0391 36.0158 20.4142C35.5991 20.7893 35.0338 21 34.4445 21Z" fill="white"/>
</g>
<defs>
<clipPath id="clip0_786_21">
<rect width="60" height="60" fill="white"/>
</clipPath>
</defs>
</svg>
