<svg width="800" height="800" viewBox="0 0 800 800" fill="none" xmlns="http://www.w3.org/2000/svg">
<g clip-path="url(#clip0_147_2)">
<path d="M352.512 799.489C277.627 794.091 203.614 775.242 158.222 750.008C132.367 735.635 112.669 717.971 104.94 702.229L100.341 692.861V399.055V105.248L103.98 97.8591C120.242 64.842 172.143 35.0768 244.594 17.2174C269.188 11.1545 304.693 5.11684 333.658 2.07227C363.234 -1.03745 441.631 -0.564326 471.134 2.90653C549.548 12.1191 616.274 32.7438 657.394 60.4798C673.252 71.1758 689.524 88.2904 695.036 100.071L699.763 110.171L699.358 403.089L698.953 696.009L695.159 703.716C693.073 707.955 686.77 716.296 681.153 722.249C646.961 758.494 573.62 785.307 477.42 796.731C457.812 799.06 372.628 800.939 352.512 799.489ZM490.512 547.736C490.224 546.985 479.029 537.012 465.635 525.573C452.241 514.134 440.705 504.237 440 503.58C439.295 502.923 441.769 500.597 445.499 498.411C449.229 496.224 456.375 490.142 461.379 484.895C476.013 469.549 482.918 450.594 482.918 425.764C482.918 401.321 475.471 381.599 460.556 366.544C445.523 351.369 428.263 344.849 403.128 344.849C364.385 344.849 334.629 367.456 325.132 404.108C321.865 416.715 321.883 442.188 325.166 453.367C333.731 482.525 357.057 503.702 386.088 508.675C395.912 510.358 397.242 511.083 403.94 518.406C407.921 522.758 416.089 531.444 422.092 537.709L433.006 549.1H462.021C477.979 549.1 490.8 548.486 490.512 547.736ZM391.008 466.496C384.023 462.854 381.383 460.028 377.399 451.93C374.323 445.676 373.797 442.118 373.762 427.336C373.728 412.315 374.206 409.07 377.418 402.547C382.674 391.874 389.916 386.822 401.119 386.011C416.714 384.88 425.716 392.534 430.434 410.927C436.218 433.478 429.857 457.453 415.979 465.41C408.698 469.585 397.838 470.057 391.008 466.496ZM262.401 508.355C292.822 502.586 310.09 484.895 310.09 459.499C310.09 436.969 298.942 423.841 268.129 410.086C250.49 402.211 244.101 397.269 244.101 391.494C244.101 386.708 250.164 381.463 257.223 380.145C264.114 378.858 282.393 382.033 293.187 386.393L302.235 390.048V370.021V349.992L292.415 347.814C286.346 346.467 273.593 345.66 259.027 345.701C238.396 345.701 234.356 346.204 226.592 349.287C203.912 358.29 193.15 373.628 193.322 396.698C193.483 418.296 204.877 431.768 233.234 443.888C249.965 451.039 256.671 456.484 256.671 462.919C256.671 476.593 233.887 478.276 209.764 466.384C203.158 463.127 197.222 460.197 196.574 459.872C195.926 459.548 195.396 468.903 195.396 480.663C195.396 501.947 195.419 502.05 199.272 503.517C213.784 509.034 245.858 511.492 262.401 508.355ZM610.182 488.61V470.543H582.687H555.191V408.481V346.421H530.838H506.486V426.55V506.679H558.333H610.182V488.61ZM440.496 171.982C488.89 168.625 525.166 162.288 557.088 151.615C588.89 140.982 607.676 128.115 611.878 114.09C613.497 108.686 613.381 106.636 611.119 100.71C600.973 74.1442 544.296 53.7336 457.691 45.4582C420.645 41.9176 353.271 43.0654 317.948 47.8368C264.051 55.1191 220.31 68.6456 200.861 84.0456C161.518 115.2 203.124 149.465 299.878 165.593C341.831 172.587 396.183 175.056 440.496 171.982Z" fill="black"/>
</g>
<defs>
<clipPath id="clip0_147_2">
<rect width="800" height="800" fill="white"/>
</clipPath>
</defs>
</svg>
